PathFileType	4	(X/Y/Z)	./resultDataOpenSim/trcMotMarkerGrf/sub09/qtm-01-03.trc
DataRate	CameraRate	NumFrames	NumMarkers	Units	OrigDataRate	OrigDataStartFrame	OrigNumFrames
250.000000	250.000000	9	24	m	250.000000	1	465
Frame#	Time	L.Toe.Tip			R.Toe.Tip			L.Ankle.Lat			R.Ankle.Lat			L.Ankle.Med			R.Ankle.Med			L.Heel			R.Heel			L.Knee.Lat			R.Knee.Lat			L.Knee.Med			R.Knee.Med			L.Thigh.Upper			R.Thigh.Upper			L.ASIS			R.ASIS			V.Sacral			L.Acromium			R.Acromium			C7			L.Elbow			R.Elbow			L.Wrist.Lat			R.Wrist.Lat
		X1	Y1	Z1	X2	Y2	Z2	X3	Y3	Z3	X4	Y4	Z4	X5	Y5	Z5	X6	Y6	Z6	X7	Y7	Z7	X8	Y8	Z8	X9	Y9	Z9	X10	Y10	Z10	X11	Y11	Z11	X12	Y12	Z12	X13	Y13	Z13	X14	Y14	Z14	X15	Y15	Z15	X16	Y16	Z16	X17	Y17	Z17	X18	Y18	Z18	X19	Y19	Z19	X20	Y20	Z20	X21	Y21	Z21	X22	Y22	Z22	X23	Y23	Z23	X24	Y24	Z24

1	0	-1.5296116	0.03592406	-0.00091182214	-0.91300186	0.095533155	0.11598671	-1.6749225	0.082646686	-0.032589105	-1.0639862	0.067922929	0.13767168	-1.6500518	0.099420086	0.061206909	-1.0544838	0.11060046	0.049087922	NaN	NaN	NaN	-1.1113949	0.029159766	0.078496349	-1.5231447	0.47012993	-0.098331329	-1.1688474	0.51542455	0.18782941	-1.522011	0.47296254	0.028416548	-1.1563055	0.50083002	0.062162964	-1.3985126	0.87317229	-0.1451227	-1.3693137	0.86515156	0.22547493	-1.2918509	0.94373366	-0.089630388	-1.2877509	0.9476782	0.15066339	-1.4512216	1.0103404	0.036930397	-1.2543186	1.3936039	-0.12548758	-1.2973081	1.4097689	0.2003636	-1.3362775	1.456924	0.033188416	-1.3666766	1.0318997	-0.20264772	NaN	NaN	NaN	-1.1209721	0.91485729	-0.16313138	-1.3647197	0.83959046	0.32130587
2	0.004	-1.5295342	0.035875756	-0.0009634023	-0.89670353	0.099956563	0.11688894	-1.6744272	0.083485617	-0.032787982	-1.0470023	0.06858291	0.13792678	-1.6495024	0.10019264	0.061021786	-1.0381925	0.1114963	0.049349854	NaN	NaN	NaN	-1.0929585	0.028316446	0.078877442	-1.5195077	0.46985418	-0.098572647	-1.1633183	0.51319984	0.1878455	-1.5179612	0.47270877	0.028311578	-1.1497861	0.49901899	0.061883241	-1.3924844	0.87197456	-0.14468738	-1.3628283	0.86327476	0.22563801	-1.2853949	0.94232595	-0.089642211	-1.2809466	0.946031	0.15071739	-1.4447084	1.008575	0.037108641	-1.2480523	1.3922024	-0.1252175	-1.291473	1.4082241	0.20072222	-1.329798	1.4556447	0.03481268	-1.3594639	1.0301282	-0.20235464	NaN	NaN	NaN	-1.113211	0.9144392	-0.162469	-1.3586808	0.83792874	0.32163493
3	0.008	-1.5294517	0.035828102	-0.0010229073	-0.8806838	0.10442458	0.11779641	-1.673841	0.084426895	-0.033039188	-1.0302894	0.069349363	0.13820698	-1.6489229	0.10099725	0.060800365	-1.0222311	0.11246046	0.049610389	NaN	NaN	NaN	-1.0747848	0.027571199	0.079431215	-1.5156951	0.46958903	-0.098750431	-1.1575689	0.51102792	0.18787434	-1.5140009	0.47242483	0.028248871	-1.1432692	0.49721038	0.061611669	-1.3864053	0.87078122	-0.14433911	-1.3562832	0.86139201	0.22576732	-1.2789093	0.94095155	-0.089660077	-1.2741245	0.94441917	0.15077085	-1.438204	1.006818	0.037307559	-1.2417843	1.3908098	-0.12494124	-1.2855631	1.4066857	0.20104989	-1.3233342	1.4543642	0.036296915	-1.3522437	1.0283342	-0.20202271	NaN	NaN	NaN	-1.1055001	0.91398487	-0.16183187	-1.3526219	0.83625537	0.32195382
4	0.012	-1.5293618	0.035785117	-0.0010922036	-0.86512084	0.10892451	0.11867294	-1.6731796	0.085476967	-0.033354024	-1.0139351	0.070328289	0.13851233	-1.6483066	0.10184281	0.060524366	-1.0067766	0.11353056	0.049852471	NaN	NaN	NaN	-1.0571074	0.02706851	0.08012079	-1.5115431	0.46934176	-0.098772411	-1.1515328	0.50895365	0.18791263	-1.5100917	0.47211416	0.028224279	-1.1367487	0.49540671	0.061357524	-1.3802407	0.86958831	-0.14407536	-1.3495988	0.85949925	0.22586442	-1.2723532	0.93962045	-0.089682792	-1.2672766	0.94284363	0.15082461	-1.431677	1.005075	0.037562366	-1.2355033	1.3894297	-0.12465795	-1.2795588	1.4051563	0.20135027	-1.3169596	1.4530426	0.037379798	-1.3450264	1.026545	-0.20169542	NaN	NaN	NaN	-1.0978553	0.91345907	-0.1612229	-1.3465117	0.8345759	0.32226215
5	0.016	-1.5292642	0.035751444	-0.0011688513	-0.85012829	0.11336832	0.11947441	-1.6725169	0.086585293	-0.033715134	-0.9978535	0.071626147	0.13881986	-1.6476575	0.10272717	0.060190129	-0.99187896	0.11470292	0.05005089	NaN	NaN	NaN	-1.04012	0.026906366	0.080744131	-1.5069546	0.46911087	-0.098570319	-1.1452432	0.50702744	0.18795246	-1.5060694	0.47179557	0.0281921	-1.1302332	0.49361378	0.061128525	-1.3739915	0.86838735	-0.14383797	-1.342747	0.85760109	0.22595253	-1.2656898	0.93831799	-0.089687637	-1.2604052	0.94129237	0.15087549	-1.4250958	1.0033494	0.037888715	-1.2292065	1.3880663	-0.12436918	-1.2734968	1.4036406	0.20164626	-1.3107197	1.4516627	0.037970095	-1.3378413	1.024814	-0.201433	NaN	NaN	NaN	-1.0902852	0.9128392	-0.16063516	-1.3403388	0.83290593	0.3225641
6	0.02	-1.5291564	0.035728791	-0.0012511483	-0.83577387	0.117648	0.12016294	-1.67186	0.08772986	-0.034119091	-0.98191897	0.073292258	0.13911037	-1.6469588	0.10366367	0.059802994	-0.97752138	0.11594843	0.050187657	NaN	NaN	NaN	-1.0238942	0.027040122	0.081159501	-1.5020107	0.46886993	-0.098232555	-1.1387159	0.50528372	0.18798797	-1.5017709	0.4714715	0.028111385	-1.123726	0.49184227	0.060928182	-1.3676659	0.86717082	-0.14358109	-1.3357478	0.85570683	0.22604799	-1.258915	0.93703073	-0.089658749	-1.2534936	0.93976469	0.1509233	-1.4184484	1.0016402	0.038261102	-1.2228834	1.3867243	-0.12406589	-1.2674062	1.4021436	0.20195422	-1.3045618	1.4502584	0.03826038	-1.3306908	1.0231681	-0.20121984	NaN	NaN	NaN	-1.0827857	0.91212654	-0.16006507	-1.3341005	0.83125604	0.32286264
7	0.024	-1.5290358	0.035716221	-0.0013384289	-0.82208879	0.12167702	0.12068508	-1.6711461	0.088926388	-0.034579267	-0.96627353	0.075162809	0.13935182	-1.6461862	0.10466873	0.059373552	-0.96370443	0.11722628	0.050250981	NaN	NaN	NaN	-1.0084201	0.027327748	0.081352814	-1.4969497	0.46857459	-0.097975754	-1.13191	0.50372387	0.18801574	-1.4971646	0.47112864	0.027983371	-1.1172037	0.49012112	0.06075819	-1.3612645	0.86593722	-0.14329141	-1.3286044	0.85383327	0.22615895	-1.2520773	0.93576181	-0.089621433	-1.2465182	0.93827193	0.15097585	-1.4117397	0.99994875	0.038652286	-1.2165153	1.3854082	-0.12373332	-1.2612745	1.400671	0.2022769	-1.2984053	1.4488673	0.038481699	-1.3235565	1.0216036	-0.20099241	NaN	NaN	NaN	-1.0753446	0.91134361	-0.15951125	-1.3277923	0.82963348	0.32315815
8	0.028	-1.5289018	0.035712035	-0.0014295575	-0.80907415	0.12538842	0.12100297	-1.670373	0.090198954	-0.035089696	-0.95136705	0.076875829	0.13946509	-1.6453435	0.10573929	0.058905593	-0.95048345	0.11848641	0.050225467	NaN	NaN	NaN	-0.99369883	0.027635217	0.081331246	-1.4919274	0.46820155	-0.097925557	-1.1246715	0.50234636	0.18806208	-1.4922889	0.47074997	0.02783425	-1.1106229	0.48849818	0.060617932	-1.3547826	0.86469064	-0.14297737	-1.3213051	0.85200208	0.22629124	-1.2452235	0.93451086	-0.089609179	-1.2394785	0.93682533	0.1510409	-1.4049764	0.99828159	0.039060722	-1.2100883	1.3841259	-0.1233678	-1.2550708	1.3992268	0.20260856	-1.2922063	1.4474971	0.038741235	-1.3164289	1.020105	-0.20070976	-1.4177768	1.0778214	0.28766141	-1.067959	0.9105114	-0.15897291	-1.3214207	0.82804154	0.32344766
9	0.032	-1.5287553	0.035715178	-0.0015241202	-0.79673154	0.12871955	0.12113094	-1.6696956	0.091551263	-0.035606953	-0.93756887	0.078146755	0.13935765	-1.6444464	0.10686868	0.058390323	-0.93794551	0.11966858	0.050091624	NaN	NaN	NaN	-0.97976452	0.027886651	0.081077912	-1.4869084	0.46776447	-0.09803962	-1.1167306	0.50116842	0.18820338	-1.4871582	0.47031436	0.027679048	-1.1039447	0.48702194	0.060503078	-1.3482144	0.863439	-0.14265115	-1.3138609	0.85023054	0.22644997	-1.2383568	0.93326655	-0.089623968	-1.232408	0.93542731	0.15112104	-1.3981581	0.99664539	0.039485398	-1.2036049	1.3828865	-0.12297564	-1.2487948	1.3978145	0.20294719	-1.2859601	1.446138	0.039049572	-1.3093147	1.0186607	-0.20037332	-1.4122219	1.0762328	0.28641376	-1.0606388	0.90963316	-0.1584499	-1.3150092	0.82647775	0.32372619
